# xmcd
#
# Track frame offsets: 
#        150
#        22320
#        36053
#        72028
#        107019
#        135691
#        186540
#        211634
#        234955
#
# Disc length: 3248 seconds
#
# Revision: 0
# Processed by: cddbd v1.5.2PL0 Copyright (c) Steve Scherf et al.
# Submitted via: ExactAudioCopy v0.95b3
#
DISCID=790cae09
DTITLE=Sly and the Family Stone  - Fillmore East, NYC - 10-5-68  - Dis
DTITLE=c 2
DYEAR=1900
DGENRE=
TTITLE0=M'Lady
TTITLE1=Life
TTITLE2=Are You Ready?
TTITLE3=It Won't Be Long
TTITLE4=Color Me True
TTITLE5=Dance to the Music
TTITLE6=Love City
TTITLE7=Turn Me Loose
TTITLE8=Outro
EXTD=
EXTT0=
EXTT1=
EXTT2=
EXTT3=
EXTT4=
EXTT5=
EXTT6=
EXTT7=
EXTT8=
PLAYORDER=
